# Blender 4.4.3
# www.blender.org
mtllib medal.mtl
o Circle
v 0.000000 0.000000 -1.000000
v -0.087156 0.000000 -0.996195
v -0.173648 0.000000 -0.984808
v -0.258819 0.000000 -0.965926
v -0.342020 0.000000 -0.939693
v -0.422618 0.000000 -0.906308
v -0.500000 0.000000 -0.866025
v -0.573577 0.000000 -0.819152
v -0.642788 0.000000 -0.766044
v -0.707107 0.000000 -0.707107
v -0.766044 0.000000 -0.642788
v -0.819152 0.000000 -0.573577
v -0.866025 0.000000 -0.500000
v -0.906308 0.000000 -0.422618
v -0.939693 0.000000 -0.342020
v -0.965926 0.000000 -0.258819
v -0.984808 0.000000 -0.173648
v -0.996195 0.000000 -0.087156
v -1.000000 0.000000 0.000000
v -0.996195 0.000000 0.087156
v -0.984808 0.000000 0.173648
v -0.965926 0.000000 0.258819
v -0.939693 0.000000 0.342020
v -0.906308 0.000000 0.422618
v -0.866025 0.000000 0.500000
v -0.819152 0.000000 0.573577
v -0.766044 0.000000 0.642788
v -0.707107 0.000000 0.707107
v -0.642788 0.000000 0.766044
v -0.573577 0.000000 0.819152
v -0.500000 0.000000 0.866025
v -0.422618 0.000000 0.906308
v -0.342020 0.000000 0.939693
v -0.258819 0.000000 0.965926
v -0.173648 0.000000 0.984808
v -0.087156 0.000000 0.996195
v 0.000000 0.000000 1.000000
v 0.087156 0.000000 0.996195
v 0.173648 0.000000 0.984808
v 0.258819 0.000000 0.965926
v 0.342020 0.000000 0.939693
v 0.422618 0.000000 0.906308
v 0.500000 0.000000 0.866025
v 0.573577 0.000000 0.819152
v 0.642788 0.000000 0.766044
v 0.707107 0.000000 0.707107
v 0.766044 0.000000 0.642788
v 0.819152 0.000000 0.573577
v 0.866025 0.000000 0.500000
v 0.906308 0.000000 0.422618
v 0.939693 0.000000 0.342020
v 0.965926 0.000000 0.258819
v 0.984808 0.000000 0.173648
v 0.996195 0.000000 0.087156
v 1.000000 0.000000 0.000000
v 0.996195 0.000000 -0.087156
v 0.984808 0.000000 -0.173648
v 0.965926 0.000000 -0.258819
v 0.939693 0.000000 -0.342020
v 0.906308 0.000000 -0.422618
v 0.866025 0.000000 -0.500000
v 0.819152 0.000000 -0.573577
v 0.766044 0.000000 -0.642788
v 0.707107 0.000000 -0.707107
v 0.642788 0.000000 -0.766044
v 0.573577 0.000000 -0.819152
v 0.500000 0.000000 -0.866025
v 0.422618 0.000000 -0.906308
v 0.342020 0.000000 -0.939693
v 0.258819 0.000000 -0.965926
v 0.173648 0.000000 -0.984808
v 0.087156 0.000000 -0.996195
v 0.539065 0.091662 -0.769864
v 0.604111 0.091662 -0.719952
v 0.769864 0.091662 -0.539065
v 0.883152 0.091662 -0.321441
v 0.936254 0.091662 -0.081912
v 0.925552 0.091662 0.163200
v 0.851776 0.091662 0.397190
v 0.719952 0.091662 0.604111
v 0.539065 0.091662 0.769864
v 0.321441 0.091662 0.883152
v 0.081912 0.091662 0.936254
v -0.163200 0.091662 0.925552
v -0.397190 0.091662 0.851776
v -0.604111 0.091662 0.719952
v -0.769864 0.091662 0.539065
v -0.883152 0.091662 0.321441
v -0.936254 0.091662 0.081912
v -0.925552 0.091662 -0.163200
v -0.851776 0.091662 -0.397190
v -0.719952 0.091662 -0.604111
v -0.604111 0.091662 -0.719952
v -0.469915 0.091662 -0.813917
v -0.321441 0.091662 -0.883152
v -0.163200 0.091662 -0.925552
v -0.081912 0.091662 -0.936254
v 0.321441 0.091662 -0.883152
v 0.243246 0.091662 -0.907807
v 0.469915 0.091662 -0.813917
v 0.719952 0.091662 -0.604111
v 0.851776 0.091662 -0.397190
v 0.925552 0.091662 -0.163200
v 0.936254 0.091662 0.081912
v 0.883152 0.091662 0.321441
v 0.769864 0.091662 0.539065
v 0.604111 0.091662 0.719952
v 0.397190 0.091662 0.851776
v 0.163200 0.091662 0.925552
v -0.081912 0.091662 0.936254
v -0.321441 0.091662 0.883152
v -0.539065 0.091662 0.769864
v -0.719952 0.091662 0.604111
v -0.851776 0.091662 0.397190
v -0.925552 0.091662 0.163200
v -0.936254 0.091662 -0.081912
v -0.883152 0.091662 -0.321441
v -0.769864 0.091662 -0.539065
v -0.664560 0.091662 -0.664560
v -0.539065 0.091662 -0.769864
v -0.397190 0.091662 -0.851776
v -0.243246 0.091662 -0.907807
v -0.000000 0.091662 -0.939831
v 0.163200 0.091662 -0.925552
v 0.081912 0.091662 -0.936254
v 0.397190 0.091662 -0.851776
v 0.664560 0.091662 -0.664560
v 0.813917 0.091662 -0.469915
v 0.907807 0.091662 -0.243246
v 0.939831 0.091662 0.000000
v 0.907807 0.091662 0.243246
v 0.813917 0.091662 0.469915
v 0.664560 0.091662 0.664560
v 0.469915 0.091662 0.813917
v 0.243246 0.091662 0.907807
v -0.000000 0.091662 0.939831
v -0.243246 0.091662 0.907807
v -0.469915 0.091662 0.813917
v -0.664560 0.091662 0.664560
v -0.813917 0.091662 0.469915
v -0.907807 0.091662 0.243246
v -0.939831 0.091662 0.000000
v -0.907807 0.091662 -0.243246
v -0.813917 0.091662 -0.469915
v 0.642788 0.091662 -0.766044
v 0.707107 0.091662 -0.707107
v 0.819152 0.091662 -0.573577
v 0.866025 0.091662 -0.500000
v 0.939693 0.091662 -0.342020
v 0.965926 0.091662 -0.258819
v 0.996195 0.091662 -0.087156
v 1.000000 0.091662 0.000000
v 0.984808 0.091662 0.173648
v 0.965926 0.091662 0.258819
v 0.906308 0.091662 0.422618
v 0.866025 0.091662 0.500000
v 0.766044 0.091662 0.642788
v 0.707107 0.091662 0.707107
v 0.573577 0.091662 0.819152
v 0.500000 0.091662 0.866025
v 0.342020 0.091662 0.939693
v 0.258819 0.091662 0.965926
v 0.087156 0.091662 0.996195
v -0.000000 0.091662 1.000000
v -0.173648 0.091662 0.984808
v -0.258819 0.091662 0.965926
v -0.422618 0.091662 0.906308
v -0.500000 0.091662 0.866025
v -0.642788 0.091662 0.766044
v -0.707107 0.091662 0.707107
v -0.819152 0.091662 0.573577
v -0.866025 0.091662 0.500000
v -0.939693 0.091662 0.342020
v -0.965926 0.091662 0.258819
v -0.996195 0.091662 0.087156
v -1.000000 0.091662 0.000000
v -0.984808 0.091662 -0.173648
v -0.965926 0.091662 -0.258819
v -0.906308 0.091662 -0.422618
v -0.866025 0.091662 -0.500000
v -0.642788 0.091662 -0.766044
v -0.573577 0.091662 -0.819152
v -0.500000 0.091662 -0.866025
v -0.422618 0.091662 -0.906308
v -0.342020 0.091662 -0.939693
v -0.258819 0.091662 -0.965926
v -0.173648 0.091662 -0.984808
v -0.087156 0.091662 -0.996195
v 0.342020 0.091662 -0.939693
v 0.422618 0.091662 -0.906308
v 0.500000 0.091662 -0.866025
v 0.573577 0.091662 -0.819152
v 0.766044 0.091662 -0.642788
v 0.906308 0.091662 -0.422618
v 0.984808 0.091662 -0.173648
v 0.996195 0.091662 0.087156
v 0.939693 0.091662 0.342020
v 0.819152 0.091662 0.573577
v 0.642788 0.091662 0.766044
v 0.422618 0.091662 0.906308
v 0.173648 0.091662 0.984808
v -0.087156 0.091662 0.996195
v -0.342020 0.091662 0.939693
v -0.573577 0.091662 0.819152
v -0.766044 0.091662 0.642788
v -0.906308 0.091662 0.422618
v -0.984808 0.091662 0.173648
v -0.996195 0.091662 -0.087156
v -0.939693 0.091662 -0.342020
v -0.819152 0.091662 -0.573577
v -0.766044 0.091662 -0.642788
v -0.707107 0.091662 -0.707107
v -0.000000 0.091662 -1.000000
v 0.173648 0.091662 -0.984808
v 0.258819 0.091662 -0.965926
v 0.087156 0.091662 -0.996195
v 0.604111 0.057325 -0.719952
v 0.664560 0.057325 -0.664560
v 0.769864 0.057325 -0.539065
v 0.813917 0.057325 -0.469915
v 0.883152 0.057325 -0.321441
v 0.907807 0.057325 -0.243246
v 0.936254 0.057325 -0.081912
v 0.939831 0.057325 0.000000
v 0.925552 0.057325 0.163200
v 0.907807 0.057325 0.243246
v 0.851776 0.057325 0.397190
v 0.813917 0.057325 0.469915
v 0.719952 0.057325 0.604111
v 0.664560 0.057325 0.664560
v 0.539065 0.057325 0.769864
v 0.469915 0.057325 0.813917
v 0.321441 0.057325 0.883152
v 0.243246 0.057325 0.907807
v 0.081912 0.057325 0.936254
v 0.000000 0.057325 0.939831
v -0.163200 0.057325 0.925552
v -0.243246 0.057325 0.907807
v -0.397190 0.057325 0.851776
v -0.469915 0.057325 0.813917
v -0.604111 0.057325 0.719952
v -0.664560 0.057325 0.664560
v -0.769864 0.057325 0.539065
v -0.813917 0.057325 0.469915
v -0.883152 0.057325 0.321441
v -0.907807 0.057325 0.243246
v -0.936254 0.057325 0.081912
v -0.939831 0.057325 0.000000
v -0.925552 0.057325 -0.163200
v -0.907807 0.057325 -0.243246
v -0.851776 0.057325 -0.397190
v -0.813917 0.057325 -0.469915
v -0.604111 0.057325 -0.719952
v -0.539065 0.057325 -0.769864
v -0.469915 0.057325 -0.813917
v -0.397190 0.057325 -0.851776
v -0.321441 0.057325 -0.883152
v -0.243246 0.057325 -0.907807
v -0.163200 0.057325 -0.925552
v -0.081912 0.057325 -0.936254
v 0.321441 0.057325 -0.883152
v 0.397190 0.057325 -0.851776
v 0.469915 0.057325 -0.813917
v 0.539065 0.057325 -0.769864
v 0.719952 0.057325 -0.604111
v 0.851776 0.057325 -0.397190
v 0.925552 0.057325 -0.163200
v 0.936254 0.057325 0.081912
v 0.883152 0.057325 0.321441
v 0.769864 0.057325 0.539065
v 0.604111 0.057325 0.719952
v 0.397190 0.057325 0.851776
v 0.163200 0.057325 0.925552
v -0.081912 0.057325 0.936254
v -0.321441 0.057325 0.883152
v -0.539065 0.057325 0.769864
v -0.719952 0.057325 0.604111
v -0.851776 0.057325 0.397190
v -0.925552 0.057325 0.163200
v -0.936254 0.057325 -0.081912
v -0.883152 0.057325 -0.321441
v -0.769864 0.057325 -0.539065
v -0.719952 0.057325 -0.604111
v -0.664560 0.057325 -0.664560
v 0.000000 0.057325 -0.939831
v 0.163200 0.057325 -0.925552
v 0.243246 0.057325 -0.907807
v 0.081912 0.057325 -0.936254
vn -0.0000 -1.0000 -0.0000
vn -0.8870 -0.0000 0.4617
vn -0.9990 -0.0000 0.0436
vn 0.0436 -0.0000 -0.9990
vn 0.7373 -0.0000 0.6756
vn -0.9914 -0.0000 0.1305
vn 0.7934 -0.0000 0.6088
vn -0.9763 -0.0000 0.2164
vn 0.8434 -0.0000 0.5373
vn -0.9537 -0.0000 0.3007
vn 0.8870 -0.0000 0.4617
vn -0.9239 -0.0000 0.3827
vn 0.9239 -0.0000 0.3827
vn 0.9537 -0.0000 0.3007
vn -0.8434 -0.0000 0.5373
vn 0.9763 -0.0000 0.2164
vn -0.7934 -0.0000 0.6088
vn 0.9914 -0.0000 0.1305
vn -0.7373 -0.0000 0.6756
vn -0.0436 -0.0000 -0.9990
vn 0.9990 -0.0000 0.0436
vn -0.6756 -0.0000 0.7373
vn -0.1305 -0.0000 -0.9914
vn 0.9990 -0.0000 -0.0436
vn -0.6088 -0.0000 0.7934
vn -0.2164 -0.0000 -0.9763
vn 0.9914 -0.0000 -0.1305
vn -0.5373 -0.0000 0.8434
vn -0.3007 -0.0000 -0.9537
vn 0.9763 -0.0000 -0.2164
vn -0.4617 -0.0000 0.8870
vn -0.3827 -0.0000 -0.9239
vn 0.9537 -0.0000 -0.3007
vn -0.3827 -0.0000 0.9239
vn -0.4617 -0.0000 -0.8870
vn 0.9239 -0.0000 -0.3827
vn -0.3007 -0.0000 0.9537
vn -0.5373 -0.0000 -0.8434
vn 0.8870 -0.0000 -0.4617
vn -0.2164 -0.0000 0.9763
vn -0.6088 -0.0000 -0.7934
vn 0.8434 -0.0000 -0.5373
vn -0.1305 -0.0000 0.9914
vn -0.6756 -0.0000 -0.7373
vn 0.7934 -0.0000 -0.6088
vn -0.0436 -0.0000 0.9990
vn -0.7373 -0.0000 -0.6756
vn 0.7373 -0.0000 -0.6756
vn 0.0436 -0.0000 0.9990
vn -0.7934 -0.0000 -0.6088
vn 0.6756 -0.0000 -0.7373
vn 0.1305 -0.0000 0.9914
vn -0.8434 -0.0000 -0.5373
vn 0.6088 -0.0000 -0.7934
vn 0.2164 -0.0000 0.9763
vn -0.8870 -0.0000 -0.4617
vn 0.5373 -0.0000 -0.8434
vn 0.3007 -0.0000 0.9537
vn -0.9239 -0.0000 -0.3827
vn 0.4617 -0.0000 -0.8870
vn 0.3827 -0.0000 0.9239
vn -0.9537 -0.0000 -0.3007
vn 0.3827 -0.0000 -0.9239
vn 0.4617 -0.0000 0.8870
vn -0.9763 -0.0000 -0.2164
vn 0.3007 -0.0000 -0.9537
vn 0.5373 -0.0000 0.8434
vn -0.9914 -0.0000 -0.1305
vn 0.2164 -0.0000 -0.9763
vn 0.6088 -0.0000 0.7934
vn -0.9990 -0.0000 -0.0436
vn 0.1305 -0.0000 -0.9914
vn 0.6756 -0.0000 0.7373
vn -0.0000 1.0000 -0.0000
vt 0.500000 1.000000
vt 0.543578 0.998097
vt 0.586824 0.992404
vt 0.629410 0.982963
vt 0.671010 0.969846
vt 0.711309 0.953154
vt 0.750000 0.933013
vt 0.786788 0.909576
vt 0.821394 0.883022
vt 0.853553 0.853553
vt 0.883022 0.821394
vt 0.909576 0.786788
vt 0.933013 0.750000
vt 0.953154 0.711309
vt 0.969846 0.671010
vt 0.982963 0.629410
vt 0.992404 0.586824
vt 0.998097 0.543578
vt 1.000000 0.500000
vt 0.998097 0.456422
vt 0.992404 0.413176
vt 0.982963 0.370590
vt 0.969846 0.328990
vt 0.953154 0.288691
vt 0.933013 0.250000
vt 0.909576 0.213212
vt 0.883022 0.178606
vt 0.853553 0.146447
vt 0.821394 0.116978
vt 0.786788 0.090424
vt 0.750000 0.066987
vt 0.711309 0.046846
vt 0.671010 0.030154
vt 0.629410 0.017037
vt 0.586824 0.007596
vt 0.543578 0.001903
vt 0.500000 0.000000
vt 0.456422 0.001903
vt 0.413176 0.007596
vt 0.370590 0.017037
vt 0.328990 0.030154
vt 0.288691 0.046846
vt 0.250000 0.066987
vt 0.213212 0.090424
vt 0.178606 0.116978
vt 0.146447 0.146447
vt 0.116978 0.178606
vt 0.090424 0.213212
vt 0.066987 0.250000
vt 0.046846 0.288691
vt 0.030154 0.328990
vt 0.017037 0.370590
vt 0.007596 0.413176
vt 0.001903 0.456422
vt 0.000000 0.500000
vt 0.001903 0.543578
vt 0.007596 0.586824
vt 0.017037 0.629410
vt 0.030154 0.671010
vt 0.046846 0.711309
vt 0.066987 0.750000
vt 0.090424 0.786788
vt 0.116978 0.821394
vt 0.146447 0.853553
vt 0.178606 0.883022
vt 0.213212 0.909576
vt 0.250000 0.933013
vt 0.288691 0.953154
vt 0.328990 0.969846
vt 0.370590 0.982963
vt 0.413176 0.992404
vt 0.456422 0.998097
vt 0.925888 0.698595
vt 0.906958 0.734958
vt 0.802056 0.859976
vt 0.832280 0.832280
vt 0.884932 0.769532
vt 0.941576 0.660720
vt 0.953903 0.621623
vt 0.968127 0.540956
vt 0.969915 0.500000
vt 0.962776 0.418400
vt 0.953903 0.378377
vt 0.925888 0.301405
vt 0.906959 0.265042
vt 0.859976 0.197944
vt 0.832280 0.167720
vt 0.769533 0.115068
vt 0.734958 0.093041
vt 0.660721 0.058424
vt 0.621623 0.046097
vt 0.540956 0.031873
vt 0.500000 0.030085
vt 0.418400 0.037224
vt 0.378377 0.046097
vt 0.301405 0.074112
vt 0.265042 0.093041
vt 0.197944 0.140024
vt 0.167720 0.167720
vt 0.115068 0.230468
vt 0.093042 0.265043
vt 0.058424 0.339280
vt 0.046097 0.378377
vt 0.031873 0.459044
vt 0.030085 0.500000
vt 0.037224 0.581600
vt 0.046097 0.621624
vt 0.074112 0.698595
vt 0.093041 0.734958
vt 0.197944 0.859976
vt 0.230468 0.884932
vt 0.265042 0.906959
vt 0.301405 0.925888
vt 0.339280 0.941576
vt 0.378377 0.953904
vt 0.418400 0.962777
vt 0.459044 0.968127
vt 0.660721 0.941576
vt 0.698595 0.925888
vt 0.734958 0.906959
vt 0.769532 0.884932
vt 0.859976 0.802056
vt 0.962776 0.581600
vt 0.968127 0.459044
vt 0.941576 0.339280
vt 0.884932 0.230468
vt 0.802056 0.140024
vt 0.698595 0.074112
vt 0.581600 0.037224
vt 0.459044 0.031873
vt 0.339280 0.058424
vt 0.230468 0.115068
vt 0.140024 0.197944
vt 0.074112 0.301405
vt 0.037224 0.418400
vt 0.031873 0.540956
vt 0.058424 0.660721
vt 0.115068 0.769533
vt 0.140024 0.802056
vt 0.167720 0.832280
vt 0.500000 0.969916
vt 0.581600 0.962776
vt 0.621623 0.953903
vt 0.540956 0.968127
s 0
f 1/1/1 72/2/1 71/3/1 70/4/1 69/5/1 68/6/1 67/7/1 66/8/1 65/9/1 64/10/1 63/11/1 62/12/1 61/13/1 60/14/1 59/15/1 58/16/1 57/17/1 56/18/1 55/19/1 54/20/1 53/21/1 52/22/1 51/23/1 50/24/1 49/25/1 48/26/1 47/27/1 46/28/1 45/29/1 44/30/1 43/31/1 42/32/1 41/33/1 40/34/1 39/35/1 38/36/1 37/37/1 36/38/1 35/39/1 34/40/1 33/41/1 32/42/1 31/43/1 30/44/1 29/45/1 28/46/1 27/47/1 26/48/1 25/49/1 24/50/1 23/51/1 22/52/1 21/53/1 20/54/1 19/55/1 18/56/1 17/57/1 16/58/1 15/59/1 14/60/1 13/61/1 12/62/1 11/63/1 10/64/1 9/65/1 8/66/1 7/67/1 6/68/1 5/69/1 4/70/1 3/71/1 2/72/1
f 102/73/2 128/74/2 220/74/2 266/73/2
f 19/55/3 20/54/3 175/54/3 176/55/3
f 72/2/4 1/1/4 213/1/4 216/2/4
f 46/28/5 47/27/5 157/27/5 158/28/5
f 20/54/6 21/53/6 207/53/6 175/54/6
f 47/27/7 48/26/7 198/26/7 157/27/7
f 21/53/8 22/52/8 174/52/8 207/53/8
f 48/26/9 49/25/9 156/25/9 198/26/9
f 22/52/10 23/51/10 173/51/10 174/52/10
f 49/25/11 50/24/11 155/24/11 156/25/11
f 23/51/12 24/50/12 206/50/12 173/51/12
f 50/24/13 51/23/13 197/23/13 155/24/13
f 24/50/2 25/49/2 172/49/2 206/50/2
f 51/23/14 52/22/14 154/22/14 197/23/14
f 25/49/15 26/48/15 171/48/15 172/49/15
f 52/22/16 53/21/16 153/21/16 154/22/16
f 26/48/17 27/47/17 205/47/17 171/48/17
f 53/21/18 54/20/18 196/20/18 153/21/18
f 27/47/19 28/46/19 170/46/19 205/47/19
f 1/1/20 2/72/20 188/72/20 213/1/20
f 54/20/21 55/19/21 152/19/21 196/20/21
f 28/46/22 29/45/22 169/45/22 170/46/22
f 2/72/23 3/71/23 187/71/23 188/72/23
f 55/19/24 56/18/24 151/18/24 152/19/24
f 29/45/25 30/44/25 204/44/25 169/45/25
f 3/71/26 4/70/26 186/70/26 187/71/26
f 56/18/27 57/17/27 195/17/27 151/18/27
f 30/44/28 31/43/28 168/43/28 204/44/28
f 4/70/29 5/69/29 185/69/29 186/70/29
f 57/17/30 58/16/30 150/16/30 195/17/30
f 31/43/31 32/42/31 167/42/31 168/43/31
f 5/69/32 6/68/32 184/68/32 185/69/32
f 58/16/33 59/15/33 149/15/33 150/16/33
f 32/42/34 33/41/34 203/41/34 167/42/34
f 6/68/35 7/67/35 183/67/35 184/68/35
f 59/15/36 60/14/36 194/14/36 149/15/36
f 33/41/37 34/40/37 166/40/37 203/41/37
f 7/67/38 8/66/38 182/66/38 183/67/38
f 60/14/39 61/13/39 148/13/39 194/14/39
f 34/40/40 35/39/40 165/39/40 166/40/40
f 8/66/41 9/65/41 181/65/41 182/66/41
f 61/13/42 62/12/42 147/12/42 148/13/42
f 35/39/43 36/38/43 202/38/43 165/39/43
f 9/65/44 10/64/44 212/64/44 181/65/44
f 62/12/45 63/11/45 193/11/45 147/12/45
f 36/38/46 37/37/46 164/37/46 202/38/46
f 10/64/47 11/63/47 211/63/47 212/64/47
f 63/11/48 64/10/48 146/10/48 193/11/48
f 37/37/49 38/36/49 163/36/49 164/37/49
f 11/63/50 12/62/50 210/62/50 211/63/50
f 64/10/51 65/9/51 145/9/51 146/10/51
f 38/36/52 39/35/52 201/35/52 163/36/52
f 12/62/53 13/61/53 180/61/53 210/62/53
f 65/9/54 66/8/54 192/8/54 145/9/54
f 39/35/55 40/34/55 162/34/55 201/35/55
f 13/61/56 14/60/56 179/60/56 180/61/56
f 66/8/57 67/7/57 191/7/57 192/8/57
f 40/34/58 41/33/58 161/33/58 162/34/58
f 14/60/59 15/59/59 209/59/59 179/60/59
f 67/7/60 68/6/60 190/6/60 191/7/60
f 41/33/61 42/32/61 200/32/61 161/33/61
f 15/59/62 16/58/62 178/58/62 209/59/62
f 68/6/63 69/5/63 189/5/63 190/6/63
f 42/32/64 43/31/64 160/31/64 200/32/64
f 16/58/65 17/57/65 177/57/65 178/58/65
f 69/5/66 70/4/66 215/4/66 189/5/66
f 43/31/67 44/30/67 159/30/67 160/31/67
f 17/57/68 18/56/68 208/56/68 177/57/68
f 70/4/69 71/3/69 214/3/69 215/4/69
f 44/30/70 45/29/70 199/29/70 159/30/70
f 18/56/71 19/55/71 176/55/71 208/56/71
f 71/3/72 72/2/72 216/2/72 214/3/72
f 45/29/73 46/28/73 158/28/73 199/29/73
f 74/75/74 127/76/74 146/10/74 145/9/74
f 75/77/74 128/74/74 148/13/74 147/12/74
f 76/78/74 129/79/74 150/16/74 149/15/74
f 77/80/74 130/81/74 152/19/74 151/18/74
f 78/82/74 131/83/74 154/22/74 153/21/74
f 79/84/74 132/85/74 156/25/74 155/24/74
f 80/86/74 133/87/74 158/28/74 157/27/74
f 81/88/74 134/89/74 160/31/74 159/30/74
f 82/90/74 135/91/74 162/34/74 161/33/74
f 83/92/74 136/93/74 164/37/74 163/36/74
f 84/94/74 137/95/74 166/40/74 165/39/74
f 85/96/74 138/97/74 168/43/74 167/42/74
f 86/98/74 139/99/74 170/46/74 169/45/74
f 87/100/74 140/101/74 172/49/74 171/48/74
f 88/102/74 141/103/74 174/52/74 173/51/74
f 89/104/74 142/105/74 176/55/74 175/54/74
f 90/106/74 143/107/74 178/58/74 177/57/74
f 91/108/74 144/109/74 180/61/74 179/60/74
f 93/110/74 120/111/74 182/66/74 181/65/74
f 94/112/74 121/113/74 184/68/74 183/67/74
f 95/114/74 122/115/74 186/70/74 185/69/74
f 96/116/74 97/117/74 188/72/74 187/71/74
f 98/118/74 126/119/74 190/6/74 189/5/74
f 100/120/74 73/121/74 192/8/74 191/7/74
f 101/122/74 75/77/74 147/12/74 193/11/74
f 102/73/74 76/78/74 149/15/74 194/14/74
f 103/123/74 77/80/74 151/18/74 195/17/74
f 104/124/74 78/82/74 153/21/74 196/20/74
f 105/125/74 79/84/74 155/24/74 197/23/74
f 106/126/74 80/86/74 157/27/74 198/26/74
f 107/127/74 81/88/74 159/30/74 199/29/74
f 108/128/74 82/90/74 161/33/74 200/32/74
f 109/129/74 83/92/74 163/36/74 201/35/74
f 110/130/74 84/94/74 165/39/74 202/38/74
f 111/131/74 85/96/74 167/42/74 203/41/74
f 112/132/74 86/98/74 169/45/74 204/44/74
f 113/133/74 87/100/74 171/48/74 205/47/74
f 114/134/74 88/102/74 173/51/74 206/50/74
f 115/135/74 89/104/74 175/54/74 207/53/74
f 116/136/74 90/106/74 177/57/74 208/56/74
f 117/137/74 91/108/74 179/60/74 209/59/74
f 118/138/74 92/139/74 211/63/74 210/62/74
f 119/140/74 93/110/74 181/65/74 212/64/74
f 120/111/74 94/112/74 183/67/74 182/66/74
f 121/113/74 95/114/74 185/69/74 184/68/74
f 122/115/74 96/116/74 187/71/74 186/70/74
f 97/117/74 123/141/74 213/1/74 188/72/74
f 124/142/74 99/143/74 215/4/74 214/3/74
f 126/119/74 100/120/74 191/7/74 190/6/74
f 127/76/74 101/122/74 193/11/74 146/10/74
f 128/74/74 102/73/74 194/14/74 148/13/74
f 129/79/74 103/123/74 195/17/74 150/16/74
f 130/81/74 104/124/74 196/20/74 152/19/74
f 131/83/74 105/125/74 197/23/74 154/22/74
f 132/85/74 106/126/74 198/26/74 156/25/74
f 133/87/74 107/127/74 199/29/74 158/28/74
f 134/89/74 108/128/74 200/32/74 160/31/74
f 135/91/74 109/129/74 201/35/74 162/34/74
f 136/93/74 110/130/74 202/38/74 164/37/74
f 137/95/74 111/131/74 203/41/74 166/40/74
f 138/97/74 112/132/74 204/44/74 168/43/74
f 139/99/74 113/133/74 205/47/74 170/46/74
f 140/101/74 114/134/74 206/50/74 172/49/74
f 141/103/74 115/135/74 207/53/74 174/52/74
f 142/105/74 116/136/74 208/56/74 176/55/74
f 143/107/74 117/137/74 209/59/74 178/58/74
f 144/109/74 118/138/74 210/62/74 180/61/74
f 92/139/74 119/140/74 212/64/74 211/63/74
f 123/141/74 125/144/74 216/2/74 213/1/74
f 125/144/74 124/142/74 214/3/74 216/2/74
f 99/143/74 98/118/74 189/5/74 215/4/74
f 73/121/74 74/75/74 145/9/74 192/8/74
f 285/141/74 260/117/74 259/116/74 258/115/74 257/114/74 256/113/74 255/112/74 254/111/74 253/110/74 284/140/74 283/139/74 282/138/74 252/109/74 251/108/74 281/137/74 250/107/74 249/106/74 280/136/74 248/105/74 247/104/74 279/135/74 246/103/74 245/102/74 278/134/74 244/101/74 243/100/74 277/133/74 242/99/74 241/98/74 276/132/74 240/97/74 239/96/74 275/131/74 238/95/74 237/94/74 274/130/74 236/93/74 235/92/74 273/129/74 234/91/74 233/90/74 272/128/74 232/89/74 231/88/74 271/127/74 230/87/74 229/86/74 270/126/74 228/85/74 227/84/74 269/125/74 226/83/74 225/82/74 268/124/74 224/81/74 223/80/74 267/123/74 222/79/74 221/78/74 266/73/74 220/74/74 219/77/74 265/122/74 218/76/74 217/75/74 264/121/74 263/120/74 262/119/74 261/118/74 287/143/74 286/142/74 288/144/74
f 75/77/17 101/122/17 265/122/17 219/77/17
f 103/123/8 129/79/8 222/79/8 267/123/8
f 76/78/12 102/73/12 266/73/12 221/78/12
f 104/124/71 130/81/71 224/81/71 268/124/71
f 77/80/6 103/123/6 267/123/6 223/80/6
f 127/76/22 74/75/22 217/75/22 218/76/22
f 105/125/62 131/83/62 226/83/62 269/125/62
f 78/82/68 104/124/68 268/124/68 225/82/68
f 128/74/15 75/77/15 219/77/15 220/74/15
f 106/126/53 132/85/53 228/85/53 270/126/53
f 79/84/59 105/125/59 269/125/59 227/84/59
f 129/79/10 76/78/10 221/78/10 222/79/10
f 107/127/44 133/87/44 230/87/44 271/127/44
f 80/86/50 106/126/50 270/126/50 229/86/50
f 130/81/3 77/80/3 223/80/3 224/81/3
f 108/128/35 134/89/35 232/89/35 272/128/35
f 81/88/41 107/127/41 271/127/41 231/88/41
f 131/83/65 78/82/65 225/82/65 226/83/65
f 109/129/26 135/91/26 234/91/26 273/129/26
f 82/90/32 108/128/32 272/128/32 233/90/32
f 132/85/56 79/84/56 227/84/56 228/85/56
f 110/130/4 136/93/4 236/93/4 274/130/4
f 83/92/23 109/129/23 273/129/23 235/92/23
f 133/87/47 80/86/47 229/86/47 230/87/47
f 111/131/66 137/95/66 238/95/66 275/131/66
f 84/94/72 110/130/72 274/130/72 237/94/72
f 134/89/38 81/88/38 231/88/38 232/89/38
f 112/132/57 138/97/57 240/97/57 276/132/57
f 85/96/63 111/131/63 275/131/63 239/96/63
f 135/91/29 82/90/29 233/90/29 234/91/29
f 113/133/48 139/99/48 242/99/48 277/133/48
f 86/98/54 112/132/54 276/132/54 241/98/54
f 136/93/20 83/92/20 235/92/20 236/93/20
f 114/134/39 140/101/39 244/101/39 278/134/39
f 87/100/45 113/133/45 277/133/45 243/100/45
f 137/95/69 84/94/69 237/94/69 238/95/69
f 115/135/30 141/103/30 246/103/30 279/135/30
f 88/102/36 114/134/36 278/134/36 245/102/36
f 138/97/60 85/96/60 239/96/60 240/97/60
f 116/136/21 142/105/21 248/105/21 280/136/21
f 89/104/27 115/135/27 279/135/27 247/104/27
f 139/99/51 86/98/51 241/98/51 242/99/51
f 117/137/14 143/107/14 250/107/14 281/137/14
f 90/106/18 116/136/18 280/136/18 249/106/18
f 140/101/42 87/100/42 243/100/42 244/101/42
f 118/138/9 144/109/9 252/109/9 282/138/9
f 91/108/13 117/137/13 281/137/13 251/108/13
f 141/103/33 88/102/33 245/102/33 246/103/33
f 119/140/5 92/139/5 283/139/5 284/140/5
f 92/139/7 118/138/7 282/138/7 283/139/7
f 142/105/24 89/104/24 247/104/24 248/105/24
f 125/144/46 123/141/46 285/141/46 288/144/46
f 93/110/73 119/140/73 284/140/73 253/110/73
f 143/107/16 90/106/16 249/106/16 250/107/16
f 124/142/43 125/144/43 288/144/43 286/142/43
f 94/112/67 120/111/67 254/111/67 255/112/67
f 144/109/11 91/108/11 251/108/11 252/109/11
f 98/118/37 99/143/37 287/143/37 261/118/37
f 95/114/61 121/113/61 256/113/61 257/114/61
f 120/111/70 93/110/70 253/110/70 254/111/70
f 74/75/25 73/121/25 264/121/25 217/75/25
f 96/116/55 122/115/55 258/115/55 259/116/55
f 121/113/64 94/112/64 255/112/64 256/113/64
f 123/141/49 97/117/49 260/117/49 285/141/49
f 122/115/58 95/114/58 257/114/58 258/115/58
f 99/143/40 124/142/40 286/142/40 287/143/40
f 97/117/52 96/116/52 259/116/52 260/117/52
f 100/120/31 126/119/31 262/119/31 263/120/31
f 126/119/34 98/118/34 261/118/34 262/119/34
f 101/122/19 127/76/19 218/76/19 265/122/19
f 73/121/28 100/120/28 263/120/28 264/121/28
